<?xml version="1.0" encoding="utf-8"?>
<!-- Generator: Adobe Illustrator 19.0.0, SVG Export Plug-In . SVG Version: 6.00 Build 0)  -->
<svg version="1.1" id="Layer_1" xmlns="http://www.w3.org/2000/svg" xmlns:xlink="http://www.w3.org/1999/xlink" x="0px" y="0px"
	 viewBox="-49 141 512 512" style="enable-background:new -49 141 512 512;" xml:space="preserve">
<style type="text/css">
	.st0{fill:#74DBC9;}
	.st1{fill:#6AC8B7;}
	.st2{fill:#FFFFFF;}
	.st3{fill:#FFFFFF;stroke:#000000;stroke-miterlimit:10;}
	.st4{fill:#AFB0B4;}
</style>
<path class="st0" d="M243.9,181.7H73.5c-14.7,0-26.7,11.9-26.7,26.7v106.5c0,14.7,11.9,26.7,26.7,26.7h83.3l62.4,52.1
	c3.4,2.8,8.7,0.3,8.7-4.1v-47.9h16c14.7,0,26.7-11.9,26.7-26.7V208.4C270.6,193.6,258.7,181.7,243.9,181.7z"/>
<g>
	<path class="st1" d="M62.9,314.8V208.4c0-14.7,11.9-26.7,26.7-26.7h-16c-14.7,0-26.7,11.9-26.7,26.7v106.5
		c0,14.7,11.9,26.7,26.7,26.7h16C74.8,341.5,62.9,329.6,62.9,314.8z"/>
	<path class="st1" d="M172.8,341.5h-16l62.4,52.1c3.4,2.8,8.7,0.3,8.7-4.1v-1.9L172.8,341.5z"/>
</g>
<g>
	<path class="st2" d="M222.6,229.6h-47.9c-2.9,0-5.3-2.4-5.3-5.3c0-2.9,2.4-5.3,5.3-5.3h47.9c2.9,0,5.3,2.4,5.3,5.3
		C228,227.3,225.6,229.6,222.6,229.6z"/>
	<path class="st2" d="M180,272.3H94.8c-2.9,0-5.3-2.4-5.3-5.3s2.4-5.3,5.3-5.3H180c2.9,0,5.3,2.4,5.3,5.3
		C185.4,269.8,182.9,272.3,180,272.3z"/>
	<path class="st2" d="M201.4,314.8H94.8c-2.9,0-5.3-2.4-5.3-5.3s2.4-5.3,5.3-5.3h106.5c2.9,0,5.3,2.4,5.3,5.3
		C206.7,312.5,204.3,314.8,201.4,314.8z"/>
	<path class="st2" d="M222.6,272.3H196c-2.9,0-5.3-2.4-5.3-5.3s2.4-5.3,5.3-5.3h26.7c2.9,0,5.3,2.4,5.3,5.3
		C228,269.8,225.6,272.3,222.6,272.3z"/>
</g>
<path class="st3" d="M148.1,219H-22.3C-37,219-49,230.9-49,245.6v106.5c0,14.7,11.9,26.7,26.7,26.7h10.7v47.9c0,4.4,5.3,6.9,8.7,4.1
	l62.4-52.1h88.6c14.7,0,26.7-11.9,26.7-26.7V245.6C174.7,230.9,162.8,219,148.1,219z"/>
<path class="st4" d="M4.2,378.8H-6.4c-14.7,0-26.7-11.9-26.7-26.7V245.6c0-14.7,11.9-26.7,26.7-26.7h-16C-37,219-49,230.9-49,245.6
	v106.5c0,14.7,11.9,26.7,26.7,26.7h10.7v47.9c0,4.4,5.3,6.9,8.7,4.1l7.2-6.1L4.2,378.8L4.2,378.8z"/>
<g>
	<circle cx="14.9" cy="298.9" r="16"/>
	<circle cx="62.9" cy="298.9" r="16"/>
	<circle cx="110.8" cy="298.9" r="16"/>
</g>
</svg>
