<?xml version="1.0" encoding="utf-8"?>
<!-- Generator: Adobe Illustrator 19.0.0, SVG Export Plug-In . SVG Version: 6.00 Build 0)  -->
<svg version="1.1" id="Capa_1" xmlns="http://www.w3.org/2000/svg" xmlns:xlink="http://www.w3.org/1999/xlink" x="0px" y="0px"
	 viewBox="-59 151.5 491.5 491.5" style="enable-background:new -59 151.5 491.5 491.5;" xml:space="preserve">
<style type="text/css">
	.st0{opacity:0.1;enable-background:new    ;}
	.st1{fill:#D5D6DB;}
	.st2{fill:#EBF0F3;}
	.st3{fill:#E1E6E9;}
	.st4{fill:#27A2DB;}
	.st5{fill:#64798A;}
	.st6{fill:#2F4859;}
	.st7{fill:#E56353;}
	.st8{fill:#6ECAEA;}
</style>
<path class="st0" d="M428,444L240.5,256.4H133.1v68.3H79v11.9h3.8v27.4H46V538l101.9,101.9c12.7,2,25.7,3.1,38.9,3.1
	C306.5,643,406.2,557.3,428,444z"/>
<rect x="46" y="364" class="st1" width="281.6" height="174.1"/>
<rect x="82.8" y="324.7" class="st2" width="207.9" height="213.3"/>
<rect x="240.1" y="395.6" class="st3" width="37.5" height="37.5"/>
<rect x="242.9" y="398.4" class="st4" width="31.9" height="31.9"/>
<rect x="79" y="324.7" class="st3" width="215.6" height="11.8"/>
<rect x="139.1" y="448.9" class="st1" width="95.4" height="89.2"/>
<rect x="143.9" y="453.2" class="st5" width="85.6" height="84.9"/>
<rect x="185.1" y="453.2" class="st6" width="3.4" height="84.9"/>
<rect x="133.1" y="256.4" class="st2" width="107.4" height="68.2"/>
<polygon class="st7" points="207.5,284 193.3,284 193.3,269.8 180.2,269.8 180.2,284 166,284 166,297.1 180.2,297.1 180.2,311.3 
	193.3,311.3 193.3,297.1 207.5,297.1 "/>
<rect x="95.9" y="348.7" class="st3" width="37.5" height="37.5"/>
<rect x="98.7" y="351.5" class="st4" width="31.9" height="31.9"/>
<rect x="143.9" y="348.7" class="st3" width="37.5" height="37.5"/>
<rect x="146.8" y="351.5" class="st4" width="31.9" height="31.9"/>
<rect x="192" y="348.7" class="st3" width="37.5" height="37.5"/>
<rect x="194.8" y="351.5" class="st4" width="31.9" height="31.9"/>
<rect x="240.1" y="348.7" class="st3" width="37.5" height="37.5"/>
<rect x="242.9" y="351.5" class="st4" width="31.9" height="31.9"/>
<rect x="95.9" y="395.6" class="st3" width="37.5" height="37.5"/>
<rect x="98.7" y="398.4" class="st4" width="31.9" height="31.9"/>
<g>
	<polygon class="st8" points="110.7,383.4 103.1,383.4 112.6,351.5 120.2,351.5 	"/>
	<polygon class="st8" points="116.7,383.4 114.2,383.4 123.7,351.5 126.1,351.5 	"/>
	<polygon class="st8" points="158.8,383.4 151.2,383.4 160.7,351.5 168.3,351.5 	"/>
	<polygon class="st8" points="164.8,383.4 162.3,383.4 171.8,351.5 174.2,351.5 	"/>
	<polygon class="st8" points="206.9,383.4 199.3,383.4 208.8,351.5 216.3,351.5 	"/>
	<polygon class="st8" points="212.8,383.4 210.4,383.4 219.8,351.5 222.3,351.5 	"/>
	<polygon class="st8" points="255,383.4 247.4,383.4 256.8,351.5 264.4,351.5 	"/>
	<polygon class="st8" points="260.9,383.4 258.5,383.4 267.9,351.5 270.4,351.5 	"/>
	<polygon class="st8" points="110.7,430.3 103.1,430.3 112.6,398.4 120.2,398.4 	"/>
	<polygon class="st8" points="116.7,430.3 114.2,430.3 123.7,398.4 126.1,398.4 	"/>
	<polygon class="st8" points="255,430.3 247.4,430.3 256.8,398.4 264.4,398.4 	"/>
	<polygon class="st8" points="260.9,430.3 258.5,430.3 267.9,398.4 270.4,398.4 	"/>
</g>
<rect x="144" y="395.6" class="st3" width="37.5" height="37.5"/>
<rect x="146.8" y="398.4" class="st4" width="31.9" height="31.9"/>
<rect x="192.1" y="395.6" class="st3" width="37.5" height="37.5"/>
<rect x="194.8" y="398.4" class="st4" width="31.9" height="31.9"/>
<g>
	<polygon class="st8" points="158.8,430.3 151.2,430.3 160.7,398.4 168.3,398.4 	"/>
	<polygon class="st8" points="164.8,430.3 162.3,430.3 171.8,398.4 174.2,398.4 	"/>
	<polygon class="st8" points="206.9,430.3 199.3,430.3 208.8,398.4 216.3,398.4 	"/>
	<polygon class="st8" points="212.8,430.3 210.4,430.3 219.8,398.4 222.3,398.4 	"/>
</g>
</svg>
