<?xml version="1.0" encoding="utf-8"?>
<!-- Generator: Adobe Illustrator 19.0.0, SVG Export Plug-In . SVG Version: 6.00 Build 0)  -->
<svg version="1.1" id="Layer_1" xmlns="http://www.w3.org/2000/svg" xmlns:xlink="http://www.w3.org/1999/xlink" x="0px" y="0px"
	 viewBox="-53 145 504 504" style="enable-background:new -53 145 504 504;" xml:space="preserve">
<style type="text/css">
	.st0{fill:#FFFFFF;}
	.st1{fill:#E6E9EE;}
	.st2{fill:#84DBFF;}
	.st3{fill:#54C0EB;}
	.st4{fill:#F1543F;}
</style>
<polygon class="st0" points="130.7,521 22.4,483.2 96.7,324.5 158.4,335.7 "/>
<polygon class="st1" points="130.7,521 245.1,483 223.5,324.5 158.4,335.7 "/>
<polygon class="st0" points="381.8,521 245.1,483 223.5,324.5 291.9,335.7 "/>
<g>
	<polygon class="st2" points="273,352.4 226.1,343.8 241.3,455.5 329,479 	"/>
	<polygon class="st2" points="106.9,346.3 51.9,466.7 134.2,492.2 155.2,355 	"/>
</g>
<polygon class="st3" points="226.1,343.8 155.2,355 134.2,492.2 241.3,455.5 "/>
<path class="st4" d="M278.8,284.9c0,45-81.5,143.3-81.5,143.3s-81.5-98.3-81.5-143.3s36.5-81.5,81.5-81.5S278.8,239.8,278.8,284.9z"
	/>
<circle class="st0" cx="197.2" cy="278.2" r="41.3"/>
</svg>
